<mxfile host="app.diagrams.net" agent="Mozilla/5.0 (Windows NT 10.0; Win64; x64) AppleWebKit/537.36 (KHTML, like Gecko) Chrome/134.0.0.0 Safari/537.36" version="26.1.1">
  <diagram name="Page-1" id="ZrzdAInTE9G_bP4znGZV">
    <mxGraphModel dx="1434" dy="818" grid="1" gridSize="10" guides="1" tooltips="1" connect="1" arrows="1" fold="1" page="1" pageScale="1" pageWidth="850" pageHeight="1100" math="0" shadow="0">
      <root>
        <mxCell id="0" />
        <mxCell id="1" parent="0" />
        <mxCell id="6XPmR4VRVmwU-zKrWbxh-20" style="rounded=0;orthogonalLoop=1;jettySize=auto;html=1;entryX=1;entryY=0.5;entryDx=0;entryDy=0;shape=link;fillColor=#f8cecc;strokeColor=#b85450;" edge="1" parent="1" source="6XPmR4VRVmwU-zKrWbxh-2" target="6XPmR4VRVmwU-zKrWbxh-1">
          <mxGeometry relative="1" as="geometry" />
        </mxCell>
        <mxCell id="6XPmR4VRVmwU-zKrWbxh-21" value="5. Send Alerts" style="edgeLabel;html=1;align=center;verticalAlign=middle;resizable=0;points=[];" vertex="1" connectable="0" parent="6XPmR4VRVmwU-zKrWbxh-20">
          <mxGeometry x="-0.0906" y="-3" relative="1" as="geometry">
            <mxPoint as="offset" />
          </mxGeometry>
        </mxCell>
        <mxCell id="6XPmR4VRVmwU-zKrWbxh-2" value="TheHive" style="image;aspect=fixed;perimeter=ellipsePerimeter;html=1;align=center;shadow=0;dashed=0;spacingTop=3;image=img/lib/active_directory/internet_cloud.svg;" vertex="1" parent="1">
          <mxGeometry x="610" y="210" width="81.75" height="51.5" as="geometry" />
        </mxCell>
        <mxCell id="6XPmR4VRVmwU-zKrWbxh-16" style="rounded=0;orthogonalLoop=1;jettySize=auto;html=1;entryX=0;entryY=0.5;entryDx=0;entryDy=0;shape=link;fillColor=#f8cecc;strokeColor=#b85450;" edge="1" parent="1" source="6XPmR4VRVmwU-zKrWbxh-4" target="6XPmR4VRVmwU-zKrWbxh-1">
          <mxGeometry relative="1" as="geometry" />
        </mxCell>
        <mxCell id="6XPmR4VRVmwU-zKrWbxh-17" value="3. Send Alerts" style="edgeLabel;html=1;align=center;verticalAlign=middle;resizable=0;points=[];" vertex="1" connectable="0" parent="6XPmR4VRVmwU-zKrWbxh-16">
          <mxGeometry x="0.2172" y="5" relative="1" as="geometry">
            <mxPoint as="offset" />
          </mxGeometry>
        </mxCell>
        <mxCell id="6XPmR4VRVmwU-zKrWbxh-30" style="edgeStyle=orthogonalEdgeStyle;rounded=0;orthogonalLoop=1;jettySize=auto;html=1;entryX=0.5;entryY=0;entryDx=0;entryDy=0;shape=link;fillColor=#f5f5f5;strokeColor=#666666;" edge="1" parent="1" source="6XPmR4VRVmwU-zKrWbxh-4" target="6XPmR4VRVmwU-zKrWbxh-1">
          <mxGeometry relative="1" as="geometry">
            <Array as="points">
              <mxPoint x="200" y="90" />
              <mxPoint x="421" y="90" />
            </Array>
          </mxGeometry>
        </mxCell>
        <mxCell id="6XPmR4VRVmwU-zKrWbxh-31" value="8. Send Response Action" style="edgeLabel;html=1;align=center;verticalAlign=middle;resizable=0;points=[];" vertex="1" connectable="0" parent="6XPmR4VRVmwU-zKrWbxh-30">
          <mxGeometry x="-0.4389" y="1" relative="1" as="geometry">
            <mxPoint as="offset" />
          </mxGeometry>
        </mxCell>
        <mxCell id="6XPmR4VRVmwU-zKrWbxh-4" value="Wazuh manager" style="image;aspect=fixed;perimeter=ellipsePerimeter;html=1;align=center;shadow=0;dashed=0;spacingTop=3;image=img/lib/active_directory/internet_cloud.svg;" vertex="1" parent="1">
          <mxGeometry x="160" y="243.7" width="80" height="50.4" as="geometry" />
        </mxCell>
        <mxCell id="6XPmR4VRVmwU-zKrWbxh-13" style="edgeStyle=orthogonalEdgeStyle;rounded=0;orthogonalLoop=1;jettySize=auto;html=1;entryX=0.5;entryY=1;entryDx=0;entryDy=0;shape=link;fillColor=#d5e8d4;strokeColor=#82b366;" edge="1" parent="1" source="6XPmR4VRVmwU-zKrWbxh-8" target="6XPmR4VRVmwU-zKrWbxh-3">
          <mxGeometry relative="1" as="geometry" />
        </mxCell>
        <mxCell id="6XPmR4VRVmwU-zKrWbxh-11" style="edgeStyle=orthogonalEdgeStyle;rounded=0;orthogonalLoop=1;jettySize=auto;html=1;entryX=0.5;entryY=1;entryDx=0;entryDy=0;startArrow=block;startFill=1;shape=link;fillColor=#e1d5e7;strokeColor=#9673a6;" edge="1" parent="1" source="6XPmR4VRVmwU-zKrWbxh-9" target="6XPmR4VRVmwU-zKrWbxh-8">
          <mxGeometry relative="1" as="geometry" />
        </mxCell>
        <mxCell id="6XPmR4VRVmwU-zKrWbxh-12" value="1. Send events" style="edgeLabel;html=1;align=center;verticalAlign=middle;resizable=0;points=[];" vertex="1" connectable="0" parent="6XPmR4VRVmwU-zKrWbxh-11">
          <mxGeometry x="-0.32" y="2" relative="1" as="geometry">
            <mxPoint as="offset" />
          </mxGeometry>
        </mxCell>
        <mxCell id="6XPmR4VRVmwU-zKrWbxh-9" value="Windows client&lt;div&gt;Wazuh agent&lt;/div&gt;" style="fontColor=#0066CC;verticalAlign=top;verticalLabelPosition=bottom;labelPosition=center;align=center;html=1;outlineConnect=0;fillColor=#CCCCCC;strokeColor=#6881B3;gradientColor=none;gradientDirection=north;strokeWidth=2;shape=mxgraph.networks.pc;" vertex="1" parent="1">
          <mxGeometry x="370" y="510" width="100" height="70" as="geometry" />
        </mxCell>
        <mxCell id="6XPmR4VRVmwU-zKrWbxh-27" style="rounded=0;orthogonalLoop=1;jettySize=auto;html=1;entryX=0.75;entryY=1;entryDx=0;entryDy=0;shape=link;fillColor=#f5f5f5;strokeColor=#666666;" edge="1" parent="1" source="6XPmR4VRVmwU-zKrWbxh-10" target="6XPmR4VRVmwU-zKrWbxh-3">
          <mxGeometry relative="1" as="geometry">
            <Array as="points">
              <mxPoint x="510" y="350" />
            </Array>
          </mxGeometry>
        </mxCell>
        <mxCell id="6XPmR4VRVmwU-zKrWbxh-28" value="8. Send Response Action" style="edgeLabel;html=1;align=center;verticalAlign=middle;resizable=0;points=[];" vertex="1" connectable="0" parent="6XPmR4VRVmwU-zKrWbxh-27">
          <mxGeometry x="-0.16" y="-3" relative="1" as="geometry">
            <mxPoint as="offset" />
          </mxGeometry>
        </mxCell>
        <mxCell id="6XPmR4VRVmwU-zKrWbxh-10" value="SOC Analyst" style="fontColor=#0066CC;verticalAlign=top;verticalLabelPosition=bottom;labelPosition=center;align=center;html=1;outlineConnect=0;fillColor=#CCCCCC;strokeColor=#6881B3;gradientColor=none;gradientDirection=north;strokeWidth=2;shape=mxgraph.networks.pc;" vertex="1" parent="1">
          <mxGeometry x="630" y="330" width="100" height="70" as="geometry" />
        </mxCell>
        <mxCell id="6XPmR4VRVmwU-zKrWbxh-14" style="edgeStyle=orthogonalEdgeStyle;rounded=0;orthogonalLoop=1;jettySize=auto;html=1;shape=link;fillColor=#e1d5e7;strokeColor=#9673a6;" edge="1" parent="1" source="6XPmR4VRVmwU-zKrWbxh-3" target="6XPmR4VRVmwU-zKrWbxh-4">
          <mxGeometry relative="1" as="geometry" />
        </mxCell>
        <mxCell id="6XPmR4VRVmwU-zKrWbxh-15" value="2. Receive events" style="edgeLabel;html=1;align=center;verticalAlign=middle;resizable=0;points=[];" vertex="1" connectable="0" parent="6XPmR4VRVmwU-zKrWbxh-14">
          <mxGeometry x="0.2222" y="3" relative="1" as="geometry">
            <mxPoint as="offset" />
          </mxGeometry>
        </mxCell>
        <mxCell id="6XPmR4VRVmwU-zKrWbxh-18" style="edgeStyle=orthogonalEdgeStyle;rounded=0;orthogonalLoop=1;jettySize=auto;html=1;shape=link;fillColor=#d5e8d4;strokeColor=#82b366;" edge="1" parent="1" source="6XPmR4VRVmwU-zKrWbxh-3" target="6XPmR4VRVmwU-zKrWbxh-1">
          <mxGeometry relative="1" as="geometry" />
        </mxCell>
        <mxCell id="6XPmR4VRVmwU-zKrWbxh-19" value="4. Enrich IOCS" style="edgeLabel;html=1;align=center;verticalAlign=middle;resizable=0;points=[];" vertex="1" connectable="0" parent="6XPmR4VRVmwU-zKrWbxh-18">
          <mxGeometry x="-0.0108" y="3" relative="1" as="geometry">
            <mxPoint x="-2" y="1" as="offset" />
          </mxGeometry>
        </mxCell>
        <mxCell id="6XPmR4VRVmwU-zKrWbxh-22" style="rounded=0;orthogonalLoop=1;jettySize=auto;html=1;entryX=1;entryY=1;entryDx=0;entryDy=0;elbow=vertical;shape=link;fillColor=#ffe6cc;strokeColor=#d79b00;" edge="1" parent="1" source="6XPmR4VRVmwU-zKrWbxh-3" target="6XPmR4VRVmwU-zKrWbxh-1">
          <mxGeometry relative="1" as="geometry">
            <Array as="points">
              <mxPoint x="530" y="230" />
            </Array>
          </mxGeometry>
        </mxCell>
        <mxCell id="6XPmR4VRVmwU-zKrWbxh-24" value="6. Send email" style="edgeLabel;html=1;align=center;verticalAlign=middle;resizable=0;points=[];" vertex="1" connectable="0" parent="6XPmR4VRVmwU-zKrWbxh-22">
          <mxGeometry x="-0.0545" y="-5" relative="1" as="geometry">
            <mxPoint as="offset" />
          </mxGeometry>
        </mxCell>
        <mxCell id="6XPmR4VRVmwU-zKrWbxh-29" style="rounded=0;orthogonalLoop=1;jettySize=auto;html=1;exitX=0;exitY=0;exitDx=0;exitDy=0;entryX=0;entryY=0.75;entryDx=0;entryDy=0;shape=link;" edge="1" parent="1" source="6XPmR4VRVmwU-zKrWbxh-3" target="6XPmR4VRVmwU-zKrWbxh-1">
          <mxGeometry relative="1" as="geometry">
            <Array as="points">
              <mxPoint x="350" y="210" />
            </Array>
          </mxGeometry>
        </mxCell>
        <mxCell id="6XPmR4VRVmwU-zKrWbxh-3" value="Internet" style="image;aspect=fixed;perimeter=ellipsePerimeter;html=1;align=center;shadow=0;dashed=0;spacingTop=3;image=img/lib/active_directory/internet_cloud.svg;" vertex="1" parent="1">
          <mxGeometry x="380" y="243.7" width="80" height="50.4" as="geometry" />
        </mxCell>
        <mxCell id="6XPmR4VRVmwU-zKrWbxh-8" value="Router" style="image;html=1;image=img/lib/clip_art/networking/Router_Icon_128x128.png" vertex="1" parent="1">
          <mxGeometry x="392.5" y="360" width="55" height="50" as="geometry" />
        </mxCell>
        <mxCell id="6XPmR4VRVmwU-zKrWbxh-1" value="Shuffle" style="image;aspect=fixed;perimeter=ellipsePerimeter;html=1;align=center;shadow=0;dashed=0;spacingTop=3;image=img/lib/active_directory/internet_cloud.svg;" vertex="1" parent="1">
          <mxGeometry x="380" y="110" width="81.75" height="51.5" as="geometry" />
        </mxCell>
        <mxCell id="6XPmR4VRVmwU-zKrWbxh-25" style="rounded=0;orthogonalLoop=1;jettySize=auto;html=1;entryX=0;entryY=0;entryDx=0;entryDy=0;entryPerimeter=0;shape=link;fillColor=#fff2cc;strokeColor=#d6b656;" edge="1" parent="1" source="6XPmR4VRVmwU-zKrWbxh-3" target="6XPmR4VRVmwU-zKrWbxh-10">
          <mxGeometry relative="1" as="geometry" />
        </mxCell>
        <mxCell id="6XPmR4VRVmwU-zKrWbxh-26" value="7. Send &amp;amp; Receive Email" style="edgeLabel;html=1;align=center;verticalAlign=middle;resizable=0;points=[];" vertex="1" connectable="0" parent="6XPmR4VRVmwU-zKrWbxh-25">
          <mxGeometry x="-0.0897" y="2" relative="1" as="geometry">
            <mxPoint as="offset" />
          </mxGeometry>
        </mxCell>
        <mxCell id="6XPmR4VRVmwU-zKrWbxh-32" style="edgeStyle=orthogonalEdgeStyle;rounded=0;orthogonalLoop=1;jettySize=auto;html=1;entryX=0;entryY=0.5;entryDx=0;entryDy=0;entryPerimeter=0;shape=link;fillColor=#f5f5f5;strokeColor=#666666;" edge="1" parent="1" source="6XPmR4VRVmwU-zKrWbxh-4" target="6XPmR4VRVmwU-zKrWbxh-9">
          <mxGeometry relative="1" as="geometry">
            <Array as="points">
              <mxPoint x="200" y="545" />
            </Array>
          </mxGeometry>
        </mxCell>
        <mxCell id="6XPmR4VRVmwU-zKrWbxh-33" value="8. Perform Response Action" style="edgeLabel;html=1;align=center;verticalAlign=middle;resizable=0;points=[];" vertex="1" connectable="0" parent="6XPmR4VRVmwU-zKrWbxh-32">
          <mxGeometry x="0.406" y="-1" relative="1" as="geometry">
            <mxPoint as="offset" />
          </mxGeometry>
        </mxCell>
        <mxCell id="6XPmR4VRVmwU-zKrWbxh-40" style="edgeStyle=orthogonalEdgeStyle;rounded=0;orthogonalLoop=1;jettySize=auto;html=1;" edge="1" parent="1" source="6XPmR4VRVmwU-zKrWbxh-34" target="6XPmR4VRVmwU-zKrWbxh-35">
          <mxGeometry relative="1" as="geometry" />
        </mxCell>
        <mxCell id="6XPmR4VRVmwU-zKrWbxh-34" value="WIndows client&lt;br&gt;Send Events" style="text;html=1;align=center;verticalAlign=middle;resizable=0;points=[];autosize=1;strokeColor=none;fillColor=none;" vertex="1" parent="1">
          <mxGeometry x="10" y="703" width="100" height="40" as="geometry" />
        </mxCell>
        <mxCell id="6XPmR4VRVmwU-zKrWbxh-41" style="edgeStyle=orthogonalEdgeStyle;rounded=0;orthogonalLoop=1;jettySize=auto;html=1;" edge="1" parent="1" source="6XPmR4VRVmwU-zKrWbxh-35" target="6XPmR4VRVmwU-zKrWbxh-37">
          <mxGeometry relative="1" as="geometry" />
        </mxCell>
        <mxCell id="6XPmR4VRVmwU-zKrWbxh-35" value="Wazuh Manager&lt;div&gt;Triger alerts &amp;amp; perform response actions&lt;/div&gt;" style="text;html=1;align=center;verticalAlign=middle;resizable=0;points=[];autosize=1;strokeColor=none;fillColor=none;" vertex="1" parent="1">
          <mxGeometry x="170" y="703" width="240" height="40" as="geometry" />
        </mxCell>
        <mxCell id="6XPmR4VRVmwU-zKrWbxh-45" style="edgeStyle=orthogonalEdgeStyle;rounded=0;orthogonalLoop=1;jettySize=auto;html=1;" edge="1" parent="1" source="6XPmR4VRVmwU-zKrWbxh-37" target="6XPmR4VRVmwU-zKrWbxh-44">
          <mxGeometry relative="1" as="geometry" />
        </mxCell>
        <mxCell id="6XPmR4VRVmwU-zKrWbxh-37" value="Shuffle&lt;br&gt;Receive Wazuth Alerts &amp;amp; Send responsive actions" style="text;html=1;align=center;verticalAlign=middle;resizable=0;points=[];autosize=1;strokeColor=none;fillColor=none;" vertex="1" parent="1">
          <mxGeometry x="490" y="703" width="290" height="40" as="geometry" />
        </mxCell>
        <mxCell id="6XPmR4VRVmwU-zKrWbxh-38" value="OSINT&lt;br&gt;Enrich IOCS" style="text;html=1;align=center;verticalAlign=middle;resizable=0;points=[];autosize=1;strokeColor=none;fillColor=none;" vertex="1" parent="1">
          <mxGeometry x="590" y="593" width="90" height="40" as="geometry" />
        </mxCell>
        <mxCell id="6XPmR4VRVmwU-zKrWbxh-39" value="TheHive&lt;br&gt;Create Alert in case management" style="text;html=1;align=center;verticalAlign=middle;resizable=0;points=[];autosize=1;strokeColor=none;fillColor=none;" vertex="1" parent="1">
          <mxGeometry x="532" y="803" width="200" height="40" as="geometry" />
        </mxCell>
        <mxCell id="6XPmR4VRVmwU-zKrWbxh-42" style="edgeStyle=orthogonalEdgeStyle;rounded=0;orthogonalLoop=1;jettySize=auto;html=1;entryX=0.5;entryY=0.95;entryDx=0;entryDy=0;entryPerimeter=0;" edge="1" parent="1" source="6XPmR4VRVmwU-zKrWbxh-37" target="6XPmR4VRVmwU-zKrWbxh-38">
          <mxGeometry relative="1" as="geometry" />
        </mxCell>
        <mxCell id="6XPmR4VRVmwU-zKrWbxh-43" style="edgeStyle=orthogonalEdgeStyle;rounded=0;orthogonalLoop=1;jettySize=auto;html=1;entryX=0.515;entryY=0.1;entryDx=0;entryDy=0;entryPerimeter=0;" edge="1" parent="1" source="6XPmR4VRVmwU-zKrWbxh-37" target="6XPmR4VRVmwU-zKrWbxh-39">
          <mxGeometry relative="1" as="geometry" />
        </mxCell>
        <mxCell id="6XPmR4VRVmwU-zKrWbxh-44" value="Shuffle&lt;br&gt;Send email &amp;amp; responsive actions" style="text;html=1;align=center;verticalAlign=middle;resizable=0;points=[];autosize=1;strokeColor=none;fillColor=none;" vertex="1" parent="1">
          <mxGeometry x="875" y="703" width="200" height="40" as="geometry" />
        </mxCell>
      </root>
    </mxGraphModel>
  </diagram>
</mxfile>
